<svg xmlns="http://www.w3.org/2000/svg" xmlns:xlink="http://www.w3.org/1999/xlink" contentStyleType="text/css" data-diagram-type="ACTIVITY" height="1228px" preserveAspectRatio="none" style="width:764px;height:1228px;background:#FFFFFF;" version="1.1" viewBox="0 0 764 1228" width="764px" zoomAndPan="magnify"><title>Card Played / Time-Out</title><defs/><g><g class="title" data-source-line="1"><text fill="#000000" font-family="sans-serif" font-size="14" font-weight="bold" lengthAdjust="spacing" textLength="182.335" x="289.6743" y="32.9951">Card Played / Time-Out</text></g><ellipse cx="372.3418" cy="57.2969" fill="#222222" rx="10" ry="10" style="stroke:#222222;stroke-width:1;"/><rect fill="#F1F1F1" height="33.9688" rx="12.5" ry="12.5" style="stroke:#181818;stroke-width:0.5;" width="134.2988" x="305.1924" y="87.2969"/><text fill="#000000" font-family="sans-serif" font-size="12" lengthAdjust="spacing" textLength="114.2988" x="315.1924" y="108.4355">Player plays a card</text><rect fill="none" height="190.2031" style="stroke:#000000;stroke-width:1.5;" width="222.7012" x="260.9912" y="131.2656"/><path d="M356.3652,131.2656 L356.3652,140.5625 L346.3652,150.5625 L260.9912,150.5625" fill="none" style="stroke:#000000;stroke-width:1.5;"/><text fill="#000000" font-family="sans-serif" font-size="14" lengthAdjust="spacing" textLength="85.374" x="263.9912" y="145.2607">Initialization</text><rect fill="#F1F1F1" height="33.9688" rx="12.5" ry="12.5" style="stroke:#181818;stroke-width:0.5;" width="182.8496" x="280.917" y="167.5625"/><text fill="#000000" font-family="sans-serif" font-size="12" lengthAdjust="spacing" textLength="19.7051" x="290.917" y="188.7012">Set</text><text fill="#000000" font-family="sans-serif" font-size="12" font-weight="bold" lengthAdjust="spacing" textLength="97.0195" x="314.4365" y="188.7012">waitingForAck</text><text fill="#000000" font-family="sans-serif" font-size="12" lengthAdjust="spacing" textLength="38.4961" x="415.2705" y="188.7012">= true</text><rect fill="#F1F1F1" height="33.9688" rx="12.5" ry="12.5" style="stroke:#181818;stroke-width:0.5;" width="191.082" x="276.8008" y="221.5313"/><text fill="#000000" font-family="sans-serif" font-size="12" lengthAdjust="spacing" textLength="22.4004" x="286.8008" y="242.6699">Call</text><text fill="#000000" font-family="sans-serif" font-size="12" font-weight="bold" lengthAdjust="spacing" textLength="144.8672" x="313.0156" y="242.6699">setNopeCardTimeOut</text><rect fill="#F1F1F1" height="33.9688" rx="12.5" ry="12.5" style="stroke:#181818;stroke-width:0.5;" width="202.7012" x="270.9912" y="275.5"/><text fill="#000000" font-family="sans-serif" font-size="12" lengthAdjust="spacing" textLength="182.7012" x="280.9912" y="296.6387">Start 10s timers for all players</text><rect fill="#555555" height="6" rx="2.5" ry="2.5" style="stroke:#555555;stroke-width:1;" width="742.6836" x="11" y="341.4688"/><rect fill="#F1F1F1" height="33.9688" rx="12.5" ry="12.5" style="stroke:#181818;stroke-width:0.5;" width="170.7148" x="162.7935" y="367.4688"/><text fill="#000000" font-family="sans-serif" font-size="12" lengthAdjust="spacing" textLength="150.7148" x="172.7935" y="388.6074">Wait for Player Response</text><rect fill="#F1F1F1" height="33.9688" rx="12.5" ry="12.5" style="stroke:#181818;stroke-width:0.5;" width="195.5879" x="150.3569" y="469.8398"/><text fill="#000000" font-family="sans-serif" font-size="12" lengthAdjust="spacing" textLength="175.5879" x="160.3569" y="490.9785">Retrieve list of online players</text><rect fill="#F1F1F1" height="33.9688" rx="12.5" ry="12.5" style="stroke:#181818;stroke-width:0.5;" width="294.5469" x="100.8774" y="538.8086"/><text fill="#000000" font-family="sans-serif" font-size="12" lengthAdjust="spacing" textLength="93.6973" x="110.8774" y="559.9473">Set player ID to</text><text fill="#000000" font-family="sans-serif" font-size="12" font-weight="bold" lengthAdjust="spacing" textLength="28.3359" x="208.3892" y="559.9473">true</text><text fill="#000000" font-family="sans-serif" font-size="12" lengthAdjust="spacing" textLength="10.9395" x="240.5396" y="559.9473">in</text><text fill="#000000" font-family="sans-serif" font-size="12" font-weight="bold" lengthAdjust="spacing" textLength="99.6563" x="255.2935" y="559.9473">cardPlayedAck</text><text fill="#000000" font-family="sans-serif" font-size="12" lengthAdjust="spacing" textLength="26.6602" x="358.7642" y="559.9473">map</text><rect fill="#F1F1F1" height="33.9688" rx="12.5" ry="12.5" style="stroke:#181818;stroke-width:0.5;" width="256.7656" x="119.7681" y="607.7773"/><text fill="#000000" font-family="sans-serif" font-size="12" lengthAdjust="spacing" textLength="236.7656" x="129.7681" y="628.916">Terminate timer for that specific player</text><polygon fill="#F1F1F1" points="191.314,676.7461,304.9878,676.7461,316.9878,688.7461,304.9878,700.7461,191.314,700.7461,179.314,688.7461,191.314,676.7461" style="stroke:#181818;stroke-width:0.5;"/><text fill="#000000" font-family="sans-serif" font-size="11" lengthAdjust="spacing" textLength="44.4512" x="191.314" y="692.5542">Was it a</text><text fill="#000000" font-family="sans-serif" font-size="11" font-weight="bold" lengthAdjust="spacing" textLength="32.0977" x="239.2617" y="692.5542">Nope</text><text fill="#000000" font-family="sans-serif" font-size="11" lengthAdjust="spacing" textLength="30.1318" x="274.856" y="692.5542">card?</text><text fill="#000000" font-family="sans-serif" font-size="11" lengthAdjust="spacing" textLength="19.2178" x="160.0962" y="686.1519">Yes</text><text fill="#000000" font-family="sans-serif" font-size="11" lengthAdjust="spacing" textLength="14.9585" x="316.9878" y="686.1519">No</text><rect fill="#F1F1F1" height="33.9688" rx="12.5" ry="12.5" style="stroke:#181818;stroke-width:0.5;" width="179.2871" x="48.0986" y="710.7461"/><text fill="#000000" font-family="sans-serif" font-size="12" lengthAdjust="spacing" textLength="49.3887" x="58.0986" y="731.8848">Activate</text><text fill="#000000" font-family="sans-serif" font-size="12" font-weight="bold" lengthAdjust="spacing" textLength="35.0156" x="111.3018" y="731.8848">Nope</text><text fill="#000000" font-family="sans-serif" font-size="12" lengthAdjust="spacing" textLength="67.2539" x="150.1318" y="731.8848">card action</text><rect fill="#F1F1F1" height="33.9688" rx="12.5" ry="12.5" style="stroke:#181818;stroke-width:0.5;" width="163.1914" x="56.1465" y="779.2148"/><text fill="#000000" font-family="sans-serif" font-size="12" lengthAdjust="spacing" textLength="40.6523" x="66.1465" y="800.3535">Cancel</text><text fill="#000000" font-family="sans-serif" font-size="12" font-weight="bold" lengthAdjust="spacing" textLength="16.3242" x="110.6133" y="800.3535">all</text><text fill="#000000" font-family="sans-serif" font-size="12" lengthAdjust="spacing" textLength="78.5859" x="130.752" y="800.3535">active timers</text><rect fill="#F1F1F1" height="33.9688" rx="12.5" ry="12.5" style="stroke:#181818;stroke-width:0.5;" width="229.4844" x="23" y="847.6836"/><text fill="#000000" font-family="sans-serif" font-size="12" lengthAdjust="spacing" textLength="209.4844" x="33" y="868.8223">Re-activate last played card power</text><ellipse cx="137.7422" cy="912.6523" fill="none" rx="11" ry="11" style="stroke:#222222;stroke-width:1;"/><ellipse cx="137.7422" cy="912.6523" fill="#222222" rx="6" ry="6" style="stroke:#222222;stroke-width:1;"/><rect fill="#F1F1F1" height="33.9688" rx="12.5" ry="12.5" style="stroke:#181818;stroke-width:0.5;" width="172.1504" x="272.4844" y="710.7461"/><text fill="#000000" font-family="sans-serif" font-size="12" lengthAdjust="spacing" textLength="152.1504" x="282.4844" y="731.8848">Continue checking status</text><polygon fill="#F1F1F1" points="191.5503,421.4375,304.7515,421.4375,316.7515,433.4375,304.7515,445.4375,191.5503,445.4375,179.5503,433.4375,191.5503,421.4375" style="stroke:#181818;stroke-width:0.5;"/><text fill="#000000" font-family="sans-serif" font-size="11" lengthAdjust="spacing" textLength="19.2178" x="252.1509" y="455.6479">Yes</text><text fill="#000000" font-family="sans-serif" font-size="11" lengthAdjust="spacing" textLength="113.2012" x="191.5503" y="437.2456">Response Received?</text><text fill="#000000" font-family="sans-serif" font-size="11" lengthAdjust="spacing" textLength="14.9585" x="316.7515" y="430.8433">No</text><polygon fill="#F1F1F1" points="248.1509,943.6523,260.1509,955.6523,248.1509,967.6523,236.1509,955.6523,248.1509,943.6523" style="stroke:#181818;stroke-width:0.5;"/><rect fill="#F1F1F1" height="33.9688" rx="12.5" ry="12.5" style="stroke:#181818;stroke-width:0.5;" width="138.957" x="553.6807" y="518.3398"/><text fill="#000000" font-family="sans-serif" font-size="12" lengthAdjust="spacing" textLength="118.957" x="563.6807" y="539.4785">Timer Elapses (10s)</text><rect fill="#F1F1F1" height="33.9688" rx="12.5" ry="12.5" style="stroke:#181818;stroke-width:0.5;" width="201.6875" x="522.3154" y="587.3086"/><text fill="#000000" font-family="sans-serif" font-size="12" lengthAdjust="spacing" textLength="37.0254" x="532.3154" y="608.4473">Throw</text><text fill="#000000" font-family="sans-serif" font-size="12" font-weight="bold" lengthAdjust="spacing" textLength="140.8477" x="573.1553" y="608.4473">XResponseException</text><rect fill="#F1F1F1" height="33.9688" rx="12.5" ry="12.5" style="stroke:#181818;stroke-width:0.5;" width="202.7422" x="521.7881" y="656.2773"/><text fill="#000000" font-family="sans-serif" font-size="12" lengthAdjust="spacing" textLength="22.4004" x="531.7881" y="677.416">Call</text><text fill="#000000" font-family="sans-serif" font-size="12" font-weight="bold" lengthAdjust="spacing" textLength="27.1172" x="558.0029" y="677.416">ruin</text><text fill="#000000" font-family="sans-serif" font-size="12" lengthAdjust="spacing" textLength="125.5957" x="588.9346" y="677.416">on responseResolver</text><rect fill="#F1F1F1" height="33.9688" rx="12.5" ry="12.5" style="stroke:#181818;stroke-width:0.5;" width="237.0488" x="504.6348" y="725.2461"/><text fill="#000000" font-family="sans-serif" font-size="12" lengthAdjust="spacing" textLength="217.0488" x="514.6348" y="746.3848">Log timeout message in catch block</text><rect fill="#F1F1F1" height="33.9688" rx="12.5" ry="12.5" style="stroke:#181818;stroke-width:0.5;" width="224.1934" x="511.0625" y="793.7148"/><text fill="#000000" font-family="sans-serif" font-size="12" lengthAdjust="spacing" textLength="22.4004" x="521.0625" y="814.8535">Call</text><text fill="#000000" font-family="sans-serif" font-size="12" font-weight="bold" lengthAdjust="spacing" textLength="177.9785" x="547.2773" y="814.8535">passPassPlayedCardTimer</text><rect fill="#555555" height="6" rx="2.5" ry="2.5" style="stroke:#555555;stroke-width:1;" width="742.6836" x="11" y="987.6523"/><rect fill="none" height="171.8438" style="stroke:#000000;stroke-width:1.5;" width="504.373" x="128.77" y="1003.6523"/><path d="M266.4722,1003.6523 L266.4722,1012.9492 L256.4722,1022.9492 L128.77,1022.9492" fill="none" style="stroke:#000000;stroke-width:1.5;"/><text fill="#000000" font-family="sans-serif" font-size="14" lengthAdjust="spacing" textLength="127.7021" x="131.77" y="1017.6475">Completion Check</text><polygon fill="#F1F1F1" points="280.7297,1039.9492,463.9539,1039.9492,475.9539,1052.7539,463.9539,1065.5586,280.7297,1065.5586,268.7297,1052.7539,280.7297,1039.9492" style="stroke:#181818;stroke-width:0.5;"/><text fill="#000000" font-family="sans-serif" font-size="11" lengthAdjust="spacing" textLength="160.1338" x="280.7297" y="1050.1597">All players acknowledged OR</text><text fill="#000000" font-family="sans-serif" font-size="11" lengthAdjust="spacing" textLength="183.2241" x="280.7297" y="1062.9644">All online players acknowledged?</text><text fill="#000000" font-family="sans-serif" font-size="11" lengthAdjust="spacing" textLength="19.2178" x="249.512" y="1050.1597">Yes</text><text fill="#000000" font-family="sans-serif" font-size="11" lengthAdjust="spacing" textLength="14.9585" x="475.9539" y="1050.1597">No</text><rect fill="#F1F1F1" height="33.9688" rx="12.5" ry="12.5" style="stroke:#181818;stroke-width:0.5;" width="204.957" x="148.77" y="1075.5586"/><text fill="#000000" font-family="sans-serif" font-size="12" lengthAdjust="spacing" textLength="184.957" x="158.77" y="1096.6973">Activate power of the last card</text><rect fill="#F1F1F1" height="33.9688" rx="12.5" ry="12.5" style="stroke:#181818;stroke-width:0.5;" width="186.7695" x="157.8638" y="1129.5273"/><text fill="#000000" font-family="sans-serif" font-size="12" lengthAdjust="spacing" textLength="19.7051" x="167.8638" y="1150.666">Set</text><text fill="#000000" font-family="sans-serif" font-size="12" font-weight="bold" lengthAdjust="spacing" textLength="97.0195" x="191.3833" y="1150.666">waitingForAck</text><text fill="#000000" font-family="sans-serif" font-size="12" lengthAdjust="spacing" textLength="42.416" x="292.2173" y="1150.666">= false</text><rect fill="#F1F1F1" height="33.9688" rx="12.5" ry="12.5" style="stroke:#181818;stroke-width:0.5;" width="239.416" x="373.7271" y="1075.5586"/><text fill="#000000" font-family="sans-serif" font-size="12" lengthAdjust="spacing" textLength="219.416" x="383.7271" y="1096.6973">Wait for remaining responses/timers</text><ellipse cx="372.3418" cy="1206.4961" fill="none" rx="11" ry="11" style="stroke:#222222;stroke-width:1;"/><ellipse cx="372.3418" cy="1206.4961" fill="#222222" rx="6" ry="6" style="stroke:#222222;stroke-width:1;"/><line style="stroke:#181818;stroke-width:1;" x1="372.3418" x2="372.3418" y1="67.2969" y2="87.2969"/><polygon fill="#181818" points="368.3418,77.2969,372.3418,87.2969,376.3418,77.2969,372.3418,81.2969" style="stroke:#181818;stroke-width:1;"/><line style="stroke:#181818;stroke-width:1;" x1="372.3418" x2="372.3418" y1="201.5313" y2="221.5313"/><polygon fill="#181818" points="368.3418,211.5313,372.3418,221.5313,376.3418,211.5313,372.3418,215.5313" style="stroke:#181818;stroke-width:1;"/><line style="stroke:#181818;stroke-width:1;" x1="372.3418" x2="372.3418" y1="255.5" y2="275.5"/><polygon fill="#181818" points="368.3418,265.5,372.3418,275.5,376.3418,265.5,372.3418,269.5" style="stroke:#181818;stroke-width:1;"/><line style="stroke:#181818;stroke-width:1;" x1="372.3418" x2="372.3418" y1="121.2656" y2="167.5625"/><polygon fill="#181818" points="368.3418,157.5625,372.3418,167.5625,376.3418,157.5625,372.3418,161.5625" style="stroke:#181818;stroke-width:1;"/><line style="stroke:#181818;stroke-width:1;" x1="248.1509" x2="248.1509" y1="503.8086" y2="538.8086"/><polygon fill="#181818" points="244.1509,528.8086,248.1509,538.8086,252.1509,528.8086,248.1509,532.8086" style="stroke:#181818;stroke-width:1;"/><line style="stroke:#181818;stroke-width:1;" x1="248.1509" x2="248.1509" y1="572.7773" y2="607.7773"/><polygon fill="#181818" points="244.1509,597.7773,248.1509,607.7773,252.1509,597.7773,248.1509,601.7773" style="stroke:#181818;stroke-width:1;"/><line style="stroke:#181818;stroke-width:1;" x1="137.7422" x2="137.7422" y1="744.7148" y2="779.2148"/><polygon fill="#181818" points="133.7422,769.2148,137.7422,779.2148,141.7422,769.2148,137.7422,773.2148" style="stroke:#181818;stroke-width:1;"/><line style="stroke:#181818;stroke-width:1;" x1="137.7422" x2="137.7422" y1="813.1836" y2="847.6836"/><polygon fill="#181818" points="133.7422,837.6836,137.7422,847.6836,141.7422,837.6836,137.7422,841.6836" style="stroke:#181818;stroke-width:1;"/><line style="stroke:#181818;stroke-width:1;" x1="137.7422" x2="137.7422" y1="881.6523" y2="901.6523"/><polygon fill="#181818" points="133.7422,891.6523,137.7422,901.6523,141.7422,891.6523,137.7422,895.6523" style="stroke:#181818;stroke-width:1;"/><line style="stroke:#181818;stroke-width:1;" x1="179.314" x2="137.7422" y1="688.7461" y2="688.7461"/><line style="stroke:#181818;stroke-width:1;" x1="137.7422" x2="137.7422" y1="688.7461" y2="710.7461"/><polygon fill="#181818" points="133.7422,700.7461,137.7422,710.7461,141.7422,700.7461,137.7422,704.7461" style="stroke:#181818;stroke-width:1;"/><line style="stroke:#181818;stroke-width:1;" x1="316.9878" x2="358.5596" y1="688.7461" y2="688.7461"/><line style="stroke:#181818;stroke-width:1;" x1="358.5596" x2="358.5596" y1="688.7461" y2="710.7461"/><polygon fill="#181818" points="354.5596,700.7461,358.5596,710.7461,362.5596,700.7461,358.5596,704.7461" style="stroke:#181818;stroke-width:1;"/><line style="stroke:#181818;stroke-width:1;" x1="358.5596" x2="358.5596" y1="744.7148" y2="928.6523"/><line style="stroke:#181818;stroke-width:1;" x1="358.5596" x2="248.1509" y1="928.6523" y2="928.6523"/><line style="stroke:#181818;stroke-width:1;" x1="248.1509" x2="248.1509" y1="928.6523" y2="943.6523"/><polygon fill="#181818" points="244.1509,933.6523,248.1509,943.6523,252.1509,933.6523,248.1509,937.6523" style="stroke:#181818;stroke-width:1;"/><line style="stroke:#181818;stroke-width:1;" x1="248.1509" x2="248.1509" y1="641.7461" y2="676.7461"/><polygon fill="#181818" points="244.1509,666.7461,248.1509,676.7461,252.1509,666.7461,248.1509,670.7461" style="stroke:#181818;stroke-width:1;"/><line style="stroke:#181818;stroke-width:1;" x1="248.1509" x2="248.1509" y1="445.4375" y2="469.8398"/><polygon fill="#181818" points="244.1509,459.8398,248.1509,469.8398,252.1509,459.8398,248.1509,463.8398" style="stroke:#181818;stroke-width:1;"/><line style="stroke:#181818;stroke-width:1;" x1="316.7515" x2="464.6348" y1="433.4375" y2="433.4375"/><polygon fill="#181818" points="460.6348,697.7461,464.6348,707.7461,468.6348,697.7461,464.6348,701.7461" style="stroke:#181818;stroke-width:1;"/><line style="stroke:#181818;stroke-width:1;" x1="464.6348" x2="464.6348" y1="433.4375" y2="955.6523"/><line style="stroke:#181818;stroke-width:1;" x1="464.6348" x2="260.1509" y1="955.6523" y2="955.6523"/><polygon fill="#181818" points="270.1509,951.6523,260.1509,955.6523,270.1509,959.6523,266.1509,955.6523" style="stroke:#181818;stroke-width:1;"/><line style="stroke:#181818;stroke-width:1;" x1="248.1509" x2="248.1509" y1="401.4375" y2="421.4375"/><polygon fill="#181818" points="244.1509,411.4375,248.1509,421.4375,252.1509,411.4375,248.1509,415.4375" style="stroke:#181818;stroke-width:1;"/><line style="stroke:#181818;stroke-width:1;" x1="623.1592" x2="623.1592" y1="552.3086" y2="587.3086"/><polygon fill="#181818" points="619.1592,577.3086,623.1592,587.3086,627.1592,577.3086,623.1592,581.3086" style="stroke:#181818;stroke-width:1;"/><line style="stroke:#181818;stroke-width:1;" x1="623.1592" x2="623.1592" y1="621.2773" y2="656.2773"/><polygon fill="#181818" points="619.1592,646.2773,623.1592,656.2773,627.1592,646.2773,623.1592,650.2773" style="stroke:#181818;stroke-width:1;"/><line style="stroke:#181818;stroke-width:1;" x1="623.1592" x2="623.1592" y1="690.2461" y2="725.2461"/><polygon fill="#181818" points="619.1592,715.2461,623.1592,725.2461,627.1592,715.2461,623.1592,719.2461" style="stroke:#181818;stroke-width:1;"/><line style="stroke:#181818;stroke-width:1;" x1="623.1592" x2="623.1592" y1="759.2148" y2="793.7148"/><polygon fill="#181818" points="619.1592,783.7148,623.1592,793.7148,627.1592,783.7148,623.1592,787.7148" style="stroke:#181818;stroke-width:1;"/><line style="stroke:#181818;stroke-width:1;" x1="248.1509" x2="248.1509" y1="347.4688" y2="367.4688"/><polygon fill="#181818" points="244.1509,357.4688,248.1509,367.4688,252.1509,357.4688,248.1509,361.4688" style="stroke:#181818;stroke-width:1;"/><line style="stroke:#181818;stroke-width:1;" x1="623.1592" x2="623.1592" y1="347.4688" y2="518.3398"/><polygon fill="#181818" points="619.1592,508.3398,623.1592,518.3398,627.1592,508.3398,623.1592,512.3398" style="stroke:#181818;stroke-width:1;"/><line style="stroke:#181818;stroke-width:1;" x1="248.1509" x2="248.1509" y1="967.6523" y2="987.6523"/><polygon fill="#181818" points="244.1509,977.6523,248.1509,987.6523,252.1509,977.6523,248.1509,981.6523" style="stroke:#181818;stroke-width:1;"/><line style="stroke:#181818;stroke-width:1;" x1="623.1592" x2="623.1592" y1="827.6836" y2="987.6523"/><polygon fill="#181818" points="619.1592,977.6523,623.1592,987.6523,627.1592,977.6523,623.1592,981.6523" style="stroke:#181818;stroke-width:1;"/><line style="stroke:#181818;stroke-width:1;" x1="372.3418" x2="372.3418" y1="309.4688" y2="341.4688"/><polygon fill="#181818" points="368.3418,331.4688,372.3418,341.4688,376.3418,331.4688,372.3418,335.4688" style="stroke:#181818;stroke-width:1;"/><line style="stroke:#181818;stroke-width:1;" x1="251.2485" x2="251.2485" y1="1109.5273" y2="1129.5273"/><polygon fill="#181818" points="247.2485,1119.5273,251.2485,1129.5273,255.2485,1119.5273,251.2485,1123.5273" style="stroke:#181818;stroke-width:1;"/><line style="stroke:#181818;stroke-width:1;" x1="268.7297" x2="251.2485" y1="1052.7539" y2="1052.7539"/><line style="stroke:#181818;stroke-width:1;" x1="251.2485" x2="251.2485" y1="1052.7539" y2="1075.5586"/><polygon fill="#181818" points="247.2485,1065.5586,251.2485,1075.5586,255.2485,1065.5586,251.2485,1069.5586" style="stroke:#181818;stroke-width:1;"/><line style="stroke:#181818;stroke-width:1;" x1="475.9539" x2="493.4351" y1="1052.7539" y2="1052.7539"/><line style="stroke:#181818;stroke-width:1;" x1="493.4351" x2="493.4351" y1="1052.7539" y2="1075.5586"/><polygon fill="#181818" points="489.4351,1065.5586,493.4351,1075.5586,497.4351,1065.5586,493.4351,1069.5586" style="stroke:#181818;stroke-width:1;"/><line style="stroke:#181818;stroke-width:1;" x1="251.2485" x2="251.2485" y1="1163.4961" y2="1168.4961"/><line style="stroke:#181818;stroke-width:1;" x1="251.2485" x2="372.3418" y1="1168.4961" y2="1168.4961"/><line style="stroke:#181818;stroke-width:1;" x1="372.3418" x2="372.3418" y1="1168.4961" y2="1195.4961"/><polygon fill="#181818" points="368.3418,1185.4961,372.3418,1195.4961,376.3418,1185.4961,372.3418,1189.4961" style="stroke:#181818;stroke-width:1;"/><line style="stroke:#181818;stroke-width:1;" x1="372.3418" x2="372.3418" y1="993.6523" y2="1039.9492"/><polygon fill="#181818" points="368.3418,1029.9492,372.3418,1039.9492,376.3418,1029.9492,372.3418,1033.9492" style="stroke:#181818;stroke-width:1;"/><!--SRC=[TLJRQjj047tNLmnviWqXxQjDAKPD8L2Iu1ZIGbycgv6rUBMxxAxiNiY_TsOb-PRKOBIQFNCxSqP99qDGOgZWqU1lgk06rhgbwuSk5KLC6FWnprS1F3yY82Y6BmhFTpffP-7gpl81ZVw3ydu5VmlWt_o94incU-HBk_dgmb9jPpFu12bqjEWX9Hh3c4ZftdcIEYGx9v_D1iIJr00VFqH8V1CYr2w0UFbSL5mKhqN1jcqFV-Pi6JBKlABedOr3Fbt3PBJmbIAze-hp55935YO_A4upB4TQKGgQTWH6nmIk1cUDjdJCUq1AdxqLxhv0SjoGjCYzQijdeQidjoUWHN_YlARGQek9-lvoxQd11D6JqhLMG-X5SV2HBfun0dUA75-Oux2IvlrMSfwbIdedQSuS09MCR76EBT4gahampmmKp6weBrv0LtIDOsI3SI2YweDxjvV2JnrYSlvW8CDZcDoxYr9BPran7O5gI6rPE-o5gJj9JRRITV4sH6_FSW3SeBQzADQPsLk3FbA42OjfEgXhtGItvqQ_Zwgu_QN82oK70GuI3Prc6ui0mW1b5sTsOuFpRswJAN9TWfPYn0t9_1KcrS2BSMfx7j1ZZ8_opuIDqW-Ibzk0BEdJ9IjTwmtbSocyZ6icQbWUzu6djRLkRwZQy1WULl3JoksvUCz0_z7_GJ1vYh80ZEfdt7y0plJ_tfxNQCR5UplfuwO6QdbICkQHsNXpgRMA4ghcPCQlydLo_Xy0]--></g></svg>