<svg xmlns="http://www.w3.org/2000/svg" xmlns:xlink="http://www.w3.org/1999/xlink" contentStyleType="text/css" data-diagram-type="DESCRIPTION" height="900px" preserveAspectRatio="none" style="width:1233px;height:900px;background:#FFFFFF;" version="1.1" viewBox="0 0 1233 900" width="1233px" zoomAndPan="magnify"><defs/><g><!--cluster Client Layer--><g class="cluster" data-qualified-name="Client Layer" data-source-line="15" id="ent0002"><rect fill="none" height="298.45" rx="2.5" ry="2.5" style="stroke:#181818;stroke-width:1;" width="802" x="7" y="142"/><text fill="#000000" font-family="sans-serif" font-size="14" font-weight="bold" lengthAdjust="spacing" textLength="94.7939" x="360.603" y="156.9951">Client Layer</text></g><!--cluster UI--><g class="cluster" data-qualified-name="Client Layer.UI" data-source-line="18" id="ent0004"><rect fill="#E8F5E9" height="113.3" rx="2.5" ry="2.5" style="stroke:#181818;stroke-width:1;" width="324" x="39" y="295.15"/><rect fill="#E8F5E9" height="10" style="stroke:#181818;stroke-width:1;" width="15" x="343" y="300.15"/><rect fill="#E8F5E9" height="2" style="stroke:#181818;stroke-width:1;" width="4" x="341" y="302.15"/><rect fill="#E8F5E9" height="2" style="stroke:#181818;stroke-width:1;" width="4" x="341" y="306.15"/><text fill="#000000" font-family="sans-serif" font-size="14" font-weight="bold" lengthAdjust="spacing" textLength="63.8613" x="169.0693" y="321.1451">UI State</text></g><!--cluster LG--><g class="cluster" data-qualified-name="Client Layer.LG" data-source-line="23" id="ent0007"><rect fill="#E8F5E9" height="97.3" rx="2.5" ry="2.5" style="stroke:#181818;stroke-width:1;" width="390" x="395" y="303.15"/><rect fill="#E8F5E9" height="10" style="stroke:#181818;stroke-width:1;" width="15" x="765" y="308.15"/><rect fill="#E8F5E9" height="2" style="stroke:#181818;stroke-width:1;" width="4" x="763" y="310.15"/><rect fill="#E8F5E9" height="2" style="stroke:#181818;stroke-width:1;" width="4" x="763" y="314.15"/><text fill="#000000" font-family="sans-serif" font-size="14" font-weight="bold" lengthAdjust="spacing" textLength="109.0127" x="535.4937" y="329.1451">Internal Logic</text></g><!--cluster Network Layer--><g class="cluster" data-qualified-name="Network Layer" data-source-line="30" id="ent0010"><rect fill="#FFF3E0" height="393.45" rx="2.5" ry="2.5" style="stroke:#181818;stroke-width:1;" width="363" x="833" y="7"/><text fill="#000000" font-family="sans-serif" font-size="14" font-weight="bold" lengthAdjust="spacing" textLength="115.4385" x="956.7808" y="21.9951">Network Layer</text></g><!--cluster Game State--><g class="cluster" data-qualified-name="Game State" data-source-line="37" id="ent0014"><rect fill="#F3E5F5" height="382.1" rx="2.5" ry="2.5" style="stroke:#181818;stroke-width:1;" width="745" x="482" y="512.24"/><text fill="#000000" font-family="sans-serif" font-size="14" font-weight="bold" lengthAdjust="spacing" textLength="92.3057" x="808.3472" y="527.2351">Game State</text></g><!--cluster GameObject--><g class="cluster" data-qualified-name="Game State.GameObject" data-source-line="38" id="ent0015"><rect fill="#CE93D8" height="218.8" rx="2.5" ry="2.5" style="stroke:#181818;stroke-width:1;" width="681" x="514" y="563.24"/><rect fill="#CE93D8" height="10" style="stroke:#181818;stroke-width:1;" width="15" x="1175" y="568.24"/><rect fill="#CE93D8" height="2" style="stroke:#181818;stroke-width:1;" width="4" x="1173" y="570.24"/><rect fill="#CE93D8" height="2" style="stroke:#181818;stroke-width:1;" width="4" x="1173" y="574.24"/><text fill="#000000" font-family="sans-serif" font-size="14" font-weight="bold" lengthAdjust="spacing" textLength="96.2295" x="806.3853" y="589.2351">GameObject</text></g><!--cluster Lobby State--><g class="cluster" data-qualified-name="Lobby State" data-source-line="47" id="ent0021"><rect fill="#F3E5F5" height="196.3" rx="2.5" ry="2.5" style="stroke:#181818;stroke-width:1;" width="373" x="85" y="473.45"/><text fill="#000000" font-family="sans-serif" font-size="14" font-weight="bold" lengthAdjust="spacing" textLength="94.9922" x="224.0039" y="488.4451">Lobby State</text></g><!--cluster LobbyObject--><g class="cluster" data-qualified-name="Lobby State.LobbyObject" data-source-line="48" id="ent0022"><rect fill="#CE93D8" height="113.3" rx="2.5" ry="2.5" style="stroke:#181818;stroke-width:1;" width="309" x="117" y="524.45"/><rect fill="#CE93D8" height="10" style="stroke:#181818;stroke-width:1;" width="15" x="406" y="529.45"/><rect fill="#CE93D8" height="2" style="stroke:#181818;stroke-width:1;" width="4" x="404" y="531.45"/><rect fill="#CE93D8" height="2" style="stroke:#181818;stroke-width:1;" width="4" x="404" y="535.45"/><text fill="#000000" font-family="sans-serif" font-size="14" font-weight="bold" lengthAdjust="spacing" textLength="98.916" x="222.042" y="550.4451">LobbyObject</text></g><!--entity APP--><g class="entity" data-qualified-name="Client Layer.APP" data-source-line="16" id="ent0003"><rect fill="#B3E5FC" height="46.2969" rx="2.5" ry="2.5" style="stroke:#181818;stroke-width:0.5;" width="136.2432" x="495.88" y="177"/><rect fill="#B3E5FC" height="10" style="stroke:#181818;stroke-width:0.5;" width="15" x="612.1232" y="182"/><rect fill="#B3E5FC" height="2" style="stroke:#181818;stroke-width:0.5;" width="4" x="610.1232" y="184"/><rect fill="#B3E5FC" height="2" style="stroke:#181818;stroke-width:0.5;" width="4" x="610.1232" y="188"/><text fill="#000000" font-family="sans-serif" font-size="14" lengthAdjust="spacing" textLength="96.2432" x="510.88" y="209.9951">weKittensApp</text></g><!--entity LobbyUI--><g class="entity" data-qualified-name="Client Layer.UI.LobbyUI" data-source-line="19" id="ent0005"><rect fill="#F1F1F1" height="46.2969" rx="2.5" ry="2.5" style="stroke:#181818;stroke-width:0.5;" width="96.7998" x="62.6" y="338.15"/><rect fill="#F1F1F1" height="10" style="stroke:#181818;stroke-width:0.5;" width="15" x="139.3998" y="343.15"/><rect fill="#F1F1F1" height="2" style="stroke:#181818;stroke-width:0.5;" width="4" x="137.3998" y="345.15"/><rect fill="#F1F1F1" height="2" style="stroke:#181818;stroke-width:0.5;" width="4" x="137.3998" y="349.15"/><text fill="#000000" font-family="sans-serif" font-size="14" lengthAdjust="spacing" textLength="56.7998" x="77.6" y="371.1451">LobbyUI</text></g><!--entity GameUI--><g class="entity" data-qualified-name="Client Layer.UI.GameUI" data-source-line="20" id="ent0006"><rect fill="#F1F1F1" height="46.2969" rx="2.5" ry="2.5" style="stroke:#181818;stroke-width:0.5;" width="96.0547" x="208.97" y="338.15"/><rect fill="#F1F1F1" height="10" style="stroke:#181818;stroke-width:0.5;" width="15" x="285.0247" y="343.15"/><rect fill="#F1F1F1" height="2" style="stroke:#181818;stroke-width:0.5;" width="4" x="283.0247" y="345.15"/><rect fill="#F1F1F1" height="2" style="stroke:#181818;stroke-width:0.5;" width="4" x="283.0247" y="349.15"/><text fill="#000000" font-family="sans-serif" font-size="14" lengthAdjust="spacing" textLength="56.0547" x="223.97" y="371.1451">GameUI</text></g><!--entity LM--><g class="entity" data-qualified-name="Client Layer.LG.LM" data-source-line="24" id="ent0008"><rect fill="#F1F1F1" height="46.2969" rx="2.5" ry="2.5" style="stroke:#181818;stroke-width:0.5;" width="159.752" x="411.12" y="338.15"/><rect fill="#F1F1F1" height="10" style="stroke:#181818;stroke-width:0.5;" width="15" x="550.872" y="343.15"/><rect fill="#F1F1F1" height="2" style="stroke:#181818;stroke-width:0.5;" width="4" x="548.872" y="345.15"/><rect fill="#F1F1F1" height="2" style="stroke:#181818;stroke-width:0.5;" width="4" x="548.872" y="349.15"/><text fill="#000000" font-family="sans-serif" font-size="14" lengthAdjust="spacing" textLength="119.752" x="426.12" y="371.1451">Lobbies Manager</text></g><!--entity GM--><g class="entity" data-qualified-name="Client Layer.LG.GM" data-source-line="25" id="ent0009"><rect fill="#F1F1F1" height="46.2969" rx="2.5" ry="2.5" style="stroke:#181818;stroke-width:0.5;" width="147.4951" x="621.25" y="338.15"/><rect fill="#F1F1F1" height="10" style="stroke:#181818;stroke-width:0.5;" width="15" x="748.7451" y="343.15"/><rect fill="#F1F1F1" height="2" style="stroke:#181818;stroke-width:0.5;" width="4" x="746.7451" y="345.15"/><rect fill="#F1F1F1" height="2" style="stroke:#181818;stroke-width:0.5;" width="4" x="746.7451" y="349.15"/><text fill="#000000" font-family="sans-serif" font-size="14" lengthAdjust="spacing" textLength="107.4951" x="636.25" y="371.1451">Game Manager</text></g><!--entity ATL--><g class="entity" data-qualified-name="Network Layer.ATL" data-source-line="31" id="ent0011"><ellipse cx="1062" cy="71" fill="#F1F1F1" rx="8" ry="8" style="stroke:#181818;stroke-width:0.5;"/><text fill="#000000" font-family="sans-serif" font-size="14" lengthAdjust="spacing" textLength="126.2393" x="998.8804" y="100.9951">AT Local Interface</text></g><!--entity ATR--><g class="entity" data-qualified-name="Network Layer.ATR" data-source-line="32" id="ent0012"><ellipse cx="929" cy="200.15" fill="#F1F1F1" rx="8" ry="8" style="stroke:#181818;stroke-width:0.5;"/><text fill="#000000" font-family="sans-serif" font-size="14" lengthAdjust="spacing" textLength="144.3545" x="856.8228" y="230.1451">AT Remote Interface</text></g><!--entity MODEL--><g class="entity" data-qualified-name="Network Layer.MODEL" data-source-line="33" id="ent0013"><rect fill="#FFE0B2" height="46.2969" rx="2.5" ry="2.5" style="stroke:#181818;stroke-width:0.5;" width="130.8633" x="863.57" y="338.15"/><rect fill="#FFE0B2" height="10" style="stroke:#181818;stroke-width:0.5;" width="15" x="974.4333" y="343.15"/><rect fill="#FFE0B2" height="2" style="stroke:#181818;stroke-width:0.5;" width="4" x="972.4333" y="345.15"/><rect fill="#FFE0B2" height="2" style="stroke:#181818;stroke-width:0.5;" width="4" x="972.4333" y="349.15"/><text fill="#000000" font-family="sans-serif" font-size="14" lengthAdjust="spacing" textLength="90.8633" x="878.57" y="371.1451">KittensModel</text></g><!--entity PlayerHand--><g class="entity" data-qualified-name="Game State.PlayerHand" data-source-line="44" id="ent0020"><rect fill="#F1F1F1" height="46.2969" rx="2.5" ry="2.5" style="stroke:#181818;stroke-width:0.5;" width="120.4316" x="1046.78" y="832.04"/><rect fill="#F1F1F1" height="10" style="stroke:#181818;stroke-width:0.5;" width="15" x="1147.2116" y="837.04"/><rect fill="#F1F1F1" height="2" style="stroke:#181818;stroke-width:0.5;" width="4" x="1145.2116" y="839.04"/><rect fill="#F1F1F1" height="2" style="stroke:#181818;stroke-width:0.5;" width="4" x="1145.2116" y="843.04"/><text fill="#000000" font-family="sans-serif" font-size="14" lengthAdjust="spacing" textLength="80.4316" x="1061.78" y="865.0351">PlayerHand</text></g><!--entity GameState--><g class="entity" data-qualified-name="Game State.GameObject.GameState" data-source-line="39" id="ent0016"><rect fill="#F1F1F1" height="46.2969" rx="2.5" ry="2.5" style="stroke:#181818;stroke-width:0.5;" width="118.7363" x="537.63" y="711.75"/><rect fill="#F1F1F1" height="10" style="stroke:#181818;stroke-width:0.5;" width="15" x="636.3663" y="716.75"/><rect fill="#F1F1F1" height="2" style="stroke:#181818;stroke-width:0.5;" width="4" x="634.3663" y="718.75"/><rect fill="#F1F1F1" height="2" style="stroke:#181818;stroke-width:0.5;" width="4" x="634.3663" y="722.75"/><text fill="#000000" font-family="sans-serif" font-size="14" lengthAdjust="spacing" textLength="78.7363" x="552.63" y="744.7451">GameState</text></g><!--entity GameTable--><g class="entity" data-qualified-name="Game State.GameObject.GameTable" data-source-line="40" id="ent0017"><rect fill="#F1F1F1" height="46.2969" rx="2.5" ry="2.5" style="stroke:#181818;stroke-width:0.5;" width="120.1992" x="705.9" y="711.75"/><rect fill="#F1F1F1" height="10" style="stroke:#181818;stroke-width:0.5;" width="15" x="806.0992" y="716.75"/><rect fill="#F1F1F1" height="2" style="stroke:#181818;stroke-width:0.5;" width="4" x="804.0992" y="718.75"/><rect fill="#F1F1F1" height="2" style="stroke:#181818;stroke-width:0.5;" width="4" x="804.0992" y="722.75"/><text fill="#000000" font-family="sans-serif" font-size="14" lengthAdjust="spacing" textLength="80.1992" x="720.9" y="744.7451">GameTable</text></g><!--entity GameDeck--><g class="entity" data-qualified-name="Game State.GameObject.GameDeck" data-source-line="41" id="ent0018"><rect fill="#F1F1F1" height="46.2969" rx="2.5" ry="2.5" style="stroke:#181818;stroke-width:0.5;" width="116.877" x="876.56" y="711.75"/><rect fill="#F1F1F1" height="10" style="stroke:#181818;stroke-width:0.5;" width="15" x="973.437" y="716.75"/><rect fill="#F1F1F1" height="2" style="stroke:#181818;stroke-width:0.5;" width="4" x="971.437" y="718.75"/><rect fill="#F1F1F1" height="2" style="stroke:#181818;stroke-width:0.5;" width="4" x="971.437" y="722.75"/><text fill="#000000" font-family="sans-serif" font-size="14" lengthAdjust="spacing" textLength="76.877" x="891.56" y="744.7451">GameDeck</text></g><!--entity PlayerHands--><g class="entity" data-qualified-name="Game State.GameObject.PlayerHands" data-source-line="42" id="ent0019"><rect fill="#F1F1F1" height="46.2969" rx="2.5" ry="2.5" style="stroke:#181818;stroke-width:0.5;" width="127.7256" x="1043.14" y="711.75"/><rect fill="#F1F1F1" height="10" style="stroke:#181818;stroke-width:0.5;" width="15" x="1150.8656" y="716.75"/><rect fill="#F1F1F1" height="2" style="stroke:#181818;stroke-width:0.5;" width="4" x="1148.8656" y="718.75"/><rect fill="#F1F1F1" height="2" style="stroke:#181818;stroke-width:0.5;" width="4" x="1148.8656" y="722.75"/><text fill="#000000" font-family="sans-serif" font-size="14" lengthAdjust="spacing" textLength="87.7256" x="1058.14" y="744.7451">PlayerHands</text></g><!--entity Lobbies--><g class="entity" data-qualified-name="Lobby State.LobbyObject.Lobbies" data-source-line="49" id="ent0023"><rect fill="#F1F1F1" height="46.2969" rx="2.5" ry="2.5" style="stroke:#181818;stroke-width:0.5;" width="93.9355" x="141.03" y="567.45"/><rect fill="#F1F1F1" height="10" style="stroke:#181818;stroke-width:0.5;" width="15" x="214.9655" y="572.45"/><rect fill="#F1F1F1" height="2" style="stroke:#181818;stroke-width:0.5;" width="4" x="212.9655" y="574.45"/><rect fill="#F1F1F1" height="2" style="stroke:#181818;stroke-width:0.5;" width="4" x="212.9655" y="578.45"/><text fill="#000000" font-family="sans-serif" font-size="14" lengthAdjust="spacing" textLength="53.9355" x="156.03" y="600.4451">Lobbies</text></g><!--entity Lobby--><g class="entity" data-qualified-name="Lobby State.LobbyObject.Lobby" data-source-line="50" id="ent0024"><rect fill="#F1F1F1" height="46.2969" rx="2.5" ry="2.5" style="stroke:#181818;stroke-width:0.5;" width="82.4238" x="284.79" y="567.45"/><rect fill="#F1F1F1" height="10" style="stroke:#181818;stroke-width:0.5;" width="15" x="347.2138" y="572.45"/><rect fill="#F1F1F1" height="2" style="stroke:#181818;stroke-width:0.5;" width="4" x="345.2138" y="574.45"/><rect fill="#F1F1F1" height="2" style="stroke:#181818;stroke-width:0.5;" width="4" x="345.2138" y="578.45"/><text fill="#000000" font-family="sans-serif" font-size="14" lengthAdjust="spacing" textLength="42.4238" x="299.79" y="600.4451">Lobby</text></g><!--link ATL to ATR--><!--reverse link ATL to MODEL--><g class="link" data-entity-1="ent0011" data-entity-2="ent0013" data-link-type="dependency" data-source-line="58" id="lnk27"><path d="M1061.8388,85.929 C1061.3988,109.669 1058.15,175.9 1034,229.15 C1014.37,272.45 977.17,313.78 952.73,338.09" fill="none" id="ATL-backto-MODEL" style="stroke:#181818;stroke-width:1;"/><polygon fill="#181818" points="1061.95,79.93,1057.7839,88.8543,1061.8573,84.9291,1065.7825,89.0026,1061.95,79.93" style="stroke:#181818;stroke-width:1;"/><text fill="#000000" font-family="sans-serif" font-size="13" lengthAdjust="spacing" textLength="65.4189" x="1063.1323" y="204.7169">Broadcast</text></g><!--link ATR to MODEL--><g class="link" data-entity-1="ent0012" data-entity-2="ent0013" data-link-type="dependency" data-source-line="59" id="lnk28"><path d="M929,208.83 C929,231.93 929,295.42 929,331.7" fill="none" id="ATR-to-MODEL" style="stroke:#181818;stroke-width:1;"/><polygon fill="#181818" points="929,337.7,933,328.7,929,332.7,925,328.7,929,337.7" style="stroke:#181818;stroke-width:1;"/><text fill="#000000" font-family="sans-serif" font-size="13" lengthAdjust="spacing" textLength="44.0146" x="934.1323" y="267.2169">Events</text></g><!--link APP to MODEL--><g class="link" data-entity-1="ent0003" data-entity-2="ent0013" data-link-type="dependency" data-source-line="60" id="lnk29"><path d="M638.248,222.9262 C683.528,237.0462 737.97,255.78 789,279.15 C826.29,296.23 861.5029,317.0226 889.2429,334.4926" fill="none" id="APP-MODEL" style="stroke:#181818;stroke-width:1;"/><polygon fill="#181818" points="632.52,221.14,639.9211,227.6379,637.2933,222.6285,642.3027,220.0006,632.52,221.14" style="stroke:#181818;stroke-width:1;"/><polygon fill="#181818" points="894.32,337.69,888.836,329.5092,890.0891,335.0255,884.5728,336.2786,894.32,337.69" style="stroke:#181818;stroke-width:1;"/><text fill="#000000" font-family="sans-serif" font-size="13" lengthAdjust="spacing" textLength="88.6006" x="770.1323" y="267.2169">Send/Receive</text></g><!--link APP to LM--><g class="link" data-entity-1="ent0003" data-entity-2="ent0008" data-link-type="dependency" data-source-line="63" id="lnk30"><path d="M516.83,223.73 C505.33,231.65 494.47,241.75 488,254.15 C474.35,280.3 477.5532,309.3925 482.9032,331.9125" fill="none" id="APP-to-LM" style="stroke:#181818;stroke-width:1;"/><polygon fill="#181818" points="484.29,337.75,486.1015,328.0692,483.1343,332.8854,478.3181,329.9182,484.29,337.75" style="stroke:#181818;stroke-width:1;"/><text fill="#000000" font-family="sans-serif" font-size="13" lengthAdjust="spacing" textLength="80.8374" x="493.1323" y="267.2169">state: Lobby</text></g><!--link APP to GM--><g class="link" data-entity-1="ent0003" data-entity-2="ent0009" data-link-type="dependency" data-source-line="64" id="lnk31"><path d="M582.49,223.62 C607.39,253.86 647.6166,302.7377 672.5766,333.0577" fill="none" id="APP-to-GM" style="stroke:#181818;stroke-width:1;"/><polygon fill="#181818" points="676.39,337.69,673.7581,328.1993,673.2122,333.8298,667.5817,333.2838,676.39,337.69" style="stroke:#181818;stroke-width:1;"/><text fill="#000000" font-family="sans-serif" font-size="13" lengthAdjust="spacing" textLength="80.1455" x="622.1323" y="267.2169">state: Game</text></g><!--reverse link APP to UI--><g class="link" data-entity-1="ent0003" data-entity-2="ent0004" data-link-type="dependency" data-source-line="65" id="lnk33"><path d="M489.9411,219.9649 C463.4711,228.3649 439.44,238.36 415,254.15 C392.6,268.63 377.715,294.57 368.3738,317.1825 C367.2061,320.0091 366.1251,322.7836 365.1268,325.4773 C364.6277,326.8242 364.1492,328.1508 363.691,329.4536 C363.4619,330.105 363.2378,330.7505 363.0188,331.3895" fill="none" id="APP-backto-UI" style="stroke:#181818;stroke-width:1;stroke-dasharray:7,7;"/><polygon fill="#181818" points="495.66,218.15,485.8717,217.0596,490.8942,219.6624,488.2915,224.6849,495.66,218.15" style="stroke:#181818;stroke-width:1;"/><text fill="#000000" font-family="sans-serif" font-size="13" lengthAdjust="spacing" textLength="50.1973" x="420.1323" y="267.2169">Queries</text></g><!--reverse link LM to LobbyObject--><g class="link" data-entity-1="ent0008" data-entity-2="ent0022" data-link-type="composition" data-source-line="68" id="lnk34"><path d="M480.0615,396.3555 C470.9765,424.6505 458.58,463.2475 444.6063,506.755 C437.6194,528.5088 431.1553,548.6338 426.348,563.5997 C426.2729,563.8335 426.1981,564.0661 426.1238,564.2974" fill="none" id="LM-backto-LobbyObject" style="stroke:#181818;stroke-width:1;"/><polygon fill="#181818" points="483.73,384.93,478.0872,389.4199,480.0615,396.3555,485.7042,391.8656,483.73,384.93" style="stroke:#181818;stroke-width:1;"/></g><!--reverse link GM to GameObject--><g class="link" data-entity-1="ent0009" data-entity-2="ent0015" data-link-type="composition" data-source-line="69" id="lnk35"><path d="M699.2569,396.84 C702.7419,425.135 707.4375,463.2475 712.7975,506.755 C714.1375,517.6319 715.4273,528.1016 716.6127,537.7228 C717.2053,542.5334 717.7718,547.1319 718.3054,551.4631 C718.5722,553.6287 718.8308,555.7275 719.0803,557.7525 C719.205,558.7651 719.3275,559.7592 719.4476,560.734 C719.5076,561.2214 719.5671,561.704 719.6259,562.1816 C719.6553,562.4205 719.6846,562.658 719.7137,562.8944" fill="none" id="GM-backto-GameObject" style="stroke:#181818;stroke-width:1;"/><polygon fill="#181818" points="697.79,384.93,694.5535,391.374,699.2569,396.84,702.4935,390.396,697.79,384.93" style="stroke:#181818;stroke-width:1;"/></g><!--reverse link GameObject to GameState--><g class="link" data-entity-1="ent0015" data-entity-2="ent0016" data-link-type="composition" data-source-line="71" id="lnk36"><path d="M714.9585,600.6874 C712.1185,603.8974 651.73,672.08 616.95,711.36" fill="none" id="GameObject-backto-GameState" style="stroke:#181818;stroke-width:1;"/><polygon fill="#181818" points="722.91,591.7,715.9384,593.5432,714.9585,600.6874,721.9301,598.8442,722.91,591.7" style="stroke:#181818;stroke-width:1;"/></g><!--reverse link GameObject to GameTable--><g class="link" data-entity-1="ent0015" data-entity-2="ent0017" data-link-type="composition" data-source-line="72" id="lnk37"><path d="M726.5011,603.187 C727.4711,606.397 747.32,672.08 759.19,711.36" fill="none" id="GameObject-backto-GameTable" style="stroke:#181818;stroke-width:1;"/><polygon fill="#181818" points="723.03,591.7,720.9366,598.6005,726.5011,603.187,728.5946,596.2864,723.03,591.7" style="stroke:#181818;stroke-width:1;"/></g><!--reverse link GameObject to GameDeck--><g class="link" data-entity-1="ent0015" data-entity-2="ent0018" data-link-type="composition" data-source-line="73" id="lnk38"><path d="M733.1121,598.39 C737.8921,601.6 842.91,672.08 901.43,711.36" fill="none" id="GameObject-backto-GameDeck" style="stroke:#181818;stroke-width:1;"/><polygon fill="#181818" points="723.15,591.7,725.901,598.3657,733.1121,598.39,730.3611,591.7243,723.15,591.7" style="stroke:#181818;stroke-width:1;"/></g><!--reverse link GameObject to PlayerHands--><g class="link" data-entity-1="ent0015" data-entity-2="ent0019" data-link-type="composition" data-source-line="74" id="lnk39"><path d="M734.5377,595.3326 C739.5777,596.9626 890.5,645.98 1018,695.75 C1030.37,700.58 1043.58,706.06 1055.94,711.33" fill="none" id="GameObject-backto-PlayerHands" style="stroke:#181818;stroke-width:1;"/><polygon fill="#181818" points="723.12,591.64,727.598,597.2922,734.5377,595.3326,730.0597,589.6804,723.12,591.64" style="stroke:#181818;stroke-width:1;"/></g><!--reverse link PlayerHands to PlayerHand--><g class="link" data-entity-1="ent0019" data-entity-2="ent0020" data-link-type="composition" data-source-line="75" id="lnk40"><path d="M1107,770.42 C1107,791.47 1107,810.72 1107,831.75" fill="none" id="PlayerHands-backto-PlayerHand" style="stroke:#181818;stroke-width:1;"/><polygon fill="#181818" points="1107,758.42,1103,764.42,1107,770.42,1111,764.42,1107,758.42" style="stroke:#181818;stroke-width:1;"/><text fill="#000000" font-family="sans-serif" font-size="13" lengthAdjust="spacing" textLength="8.271" x="1098.0573" y="778.0646">1</text><text fill="#000000" font-family="sans-serif" font-size="13" lengthAdjust="spacing" textLength="8.271" x="1098.0108" y="820.9059">4</text></g><!--link LobbyObject to GameObject--><!--SRC=[ZLHTQzj047pNhzXUe862qdmPab02ZYEv9dBioWvzAAMSfRLzzVaa93acbFptxjt9YkJAD7boRkPkTsP7Umokwq8lKNEns6Iy48dI9qw-4Yhb6Lz3bApJHA4g9iMBHDYivNaDJNcquWkqM8PHmTL2OesGBtcSR8LQm9pBl8uy9Z7cc4Bdj7OOShKg3vtZiZUPP33c4ei2JMyVOfmBXV0q-DKR1QCGZhmpl-Dx5H2C-eDUXLtv7U-wmXwzwVTH-B13VT-_y4uhT3BjJhqAk_0wVgVgGmeo0GB-WfbfevGEh8umW3yEq5zb6spnGL3hAk-cAV0SkkCn7DtfjtlE7fKz3M1Iy0AP9j8_TINstUQ589dDNfu6BKYVhx44NlyfCr05PefBkhyGaIaMzFzRZEbg0dCOSaN2CtjlsCRKrHkq_h1ivNNdvoCMsoHRsHQQXbPGwMXpPhOreINCUKJqxfGUYKZDO7TcIdQdGGipn7L2ETgdXdiMbICRKaQbPWn7zrwWu-ATtfs_YJ33oflT6-tb51k1sW-69evcl-cZWQEUTtrnVzLgkwQPvmvWKpwJXx1xZ5Ojq5XgPxzo5UVbM0xXMcgbpAJjNT8CyntQoaGTIlP-PYWGoQQ0ZtfXANgRjfKrd_0oD6RJo6JhqFZ1_R4KSOpgfsj6R8VeRbBtLgS3Re31NPRmEE9vmUX622ujAqMmfMg2zqpjv8JIP_l5RK0JLF7d42CKpyXq3_I5In7PBMfoRMxjtWo6vbQk_Rkn0bc3q6yGzFoOGqlWP9EUt9greT5l6yp8CbFFZ8BC8DDoeQiwLEEJDkhDVwTlZzxIvZYrvEqWcx0MmCQh1J3PsZkl1wls6zWPCpYxPFLmaOHnsRcUsn9bwjIZKyql4ujbKTVm5m00]--></g></svg>